<mxfile host="Electron" agent="Mozilla/5.0 (Windows NT 10.0; Win64; x64) AppleWebKit/537.36 (KHTML, like Gecko) draw.io/24.7.17 Chrome/128.0.6613.36 Electron/32.0.1 Safari/537.36" version="24.7.17" pages="2">
  <diagram id="pVkjdIHFhVC-erRcWONf" name="architecture">
    <mxGraphModel dx="783" dy="532" grid="1" gridSize="10" guides="1" tooltips="1" connect="1" arrows="1" fold="1" page="1" pageScale="1" pageWidth="1169" pageHeight="827" math="0" shadow="0">
      <root>
        <mxCell id="0" />
        <mxCell id="1" parent="0" />
        <mxCell id="D_LdFUzbr9QLPJNRoa1a-2" value="Parking Management" style="rounded=0;whiteSpace=wrap;html=1;verticalAlign=top;fillColor=default;fontStyle=1" vertex="1" parent="1">
          <mxGeometry x="40" y="40" width="600" height="170" as="geometry" />
        </mxCell>
        <mxCell id="D_LdFUzbr9QLPJNRoa1a-15" value="" style="endArrow=none;dashed=1;html=1;rounded=0;" edge="1" parent="1">
          <mxGeometry width="50" height="50" relative="1" as="geometry">
            <mxPoint x="440" y="200" as="sourcePoint" />
            <mxPoint x="440" y="80" as="targetPoint" />
          </mxGeometry>
        </mxCell>
        <mxCell id="QEAgkKTbfmdCsEAafoWu-1" value="Frontend Service&lt;br&gt;(ReactJS)" style="rounded=1;whiteSpace=wrap;html=1;fillColor=#dae8fc;strokeColor=#6c8ebf;" parent="1" vertex="1">
          <mxGeometry x="80" y="120" width="120" height="60" as="geometry" />
        </mxCell>
        <mxCell id="QEAgkKTbfmdCsEAafoWu-3" value="MongoDB" style="shape=cylinder3;whiteSpace=wrap;html=1;boundedLbl=1;backgroundOutline=1;size=15;fillColor=#d5e8d4;strokeColor=#82b366;" parent="1" vertex="1">
          <mxGeometry x="510" y="110" width="60" height="80" as="geometry" />
        </mxCell>
        <mxCell id="QEAgkKTbfmdCsEAafoWu-7" style="edgeStyle=orthogonalEdgeStyle;rounded=0;orthogonalLoop=1;jettySize=auto;html=1;" parent="1" source="QEAgkKTbfmdCsEAafoWu-6" target="QEAgkKTbfmdCsEAafoWu-3" edge="1">
          <mxGeometry relative="1" as="geometry" />
        </mxCell>
        <mxCell id="QEAgkKTbfmdCsEAafoWu-6" value="Database Service&lt;br&gt;(C#)" style="rounded=1;whiteSpace=wrap;html=1;fillColor=#fff2cc;strokeColor=#d6b656;" parent="1" vertex="1">
          <mxGeometry x="280" y="120" width="120" height="60" as="geometry" />
        </mxCell>
        <mxCell id="QEAgkKTbfmdCsEAafoWu-10" value="" style="rounded=0;orthogonalLoop=1;jettySize=auto;html=1;endArrow=none;endFill=0;sketch=0;sourcePerimeterSpacing=0;targetPerimeterSpacing=0;exitX=0;exitY=0.5;exitDx=0;exitDy=0;" parent="1" source="QEAgkKTbfmdCsEAafoWu-6" target="QEAgkKTbfmdCsEAafoWu-12" edge="1">
          <mxGeometry relative="1" as="geometry">
            <mxPoint x="320" y="355" as="sourcePoint" />
          </mxGeometry>
        </mxCell>
        <mxCell id="QEAgkKTbfmdCsEAafoWu-11" value="" style="rounded=0;orthogonalLoop=1;jettySize=auto;html=1;endArrow=halfCircle;endFill=0;endSize=6;strokeWidth=1;sketch=0;exitX=1;exitY=0.5;exitDx=0;exitDy=0;" parent="1" source="QEAgkKTbfmdCsEAafoWu-1" target="QEAgkKTbfmdCsEAafoWu-12" edge="1">
          <mxGeometry relative="1" as="geometry">
            <mxPoint x="265" y="120" as="sourcePoint" />
            <mxPoint x="245" y="170" as="targetPoint" />
          </mxGeometry>
        </mxCell>
        <mxCell id="QEAgkKTbfmdCsEAafoWu-12" value="" style="ellipse;whiteSpace=wrap;html=1;align=center;aspect=fixed;resizable=0;points=[];outlineConnect=0;sketch=0;" parent="1" vertex="1">
          <mxGeometry x="240" y="145" width="10" height="10" as="geometry" />
        </mxCell>
        <mxCell id="QEAgkKTbfmdCsEAafoWu-13" value="Backend-Services" style="rounded=0;whiteSpace=wrap;html=1;verticalAlign=top;" parent="1" vertex="1">
          <mxGeometry x="490" y="620" width="150" height="196" as="geometry" />
        </mxCell>
        <mxCell id="QEAgkKTbfmdCsEAafoWu-14" value="Frontend (Website)&lt;br&gt;(React)" style="rounded=1;whiteSpace=wrap;html=1;" parent="1" vertex="1">
          <mxGeometry x="310" y="670" width="120" height="60" as="geometry" />
        </mxCell>
        <mxCell id="QEAgkKTbfmdCsEAafoWu-15" value="Backend (C#)" style="rounded=1;whiteSpace=wrap;html=1;" parent="1" vertex="1">
          <mxGeometry x="505" y="650" width="120" height="60" as="geometry" />
        </mxCell>
        <mxCell id="QEAgkKTbfmdCsEAafoWu-16" value="Datenbank" style="rounded=0;whiteSpace=wrap;html=1;verticalAlign=top;" parent="1" vertex="1">
          <mxGeometry x="690" y="620" width="170" height="196" as="geometry" />
        </mxCell>
        <mxCell id="QEAgkKTbfmdCsEAafoWu-17" value="DB" style="shape=cylinder3;whiteSpace=wrap;html=1;boundedLbl=1;backgroundOutline=1;size=15;" parent="1" vertex="1">
          <mxGeometry x="750" y="730" width="60" height="80" as="geometry" />
        </mxCell>
        <mxCell id="QEAgkKTbfmdCsEAafoWu-18" style="edgeStyle=orthogonalEdgeStyle;rounded=0;orthogonalLoop=1;jettySize=auto;html=1;exitX=0.5;exitY=1;exitDx=0;exitDy=0;entryX=0.5;entryY=0;entryDx=0;entryDy=0;entryPerimeter=0;" parent="1" source="QEAgkKTbfmdCsEAafoWu-19" target="QEAgkKTbfmdCsEAafoWu-17" edge="1">
          <mxGeometry relative="1" as="geometry" />
        </mxCell>
        <mxCell id="QEAgkKTbfmdCsEAafoWu-19" value="Datenbank-Service&lt;br&gt;(C#)" style="rounded=1;whiteSpace=wrap;html=1;" parent="1" vertex="1">
          <mxGeometry x="720" y="650" width="120" height="60" as="geometry" />
        </mxCell>
        <mxCell id="QEAgkKTbfmdCsEAafoWu-20" value="" style="rounded=0;orthogonalLoop=1;jettySize=auto;html=1;endArrow=none;endFill=0;sketch=0;sourcePerimeterSpacing=0;targetPerimeterSpacing=0;exitX=0;exitY=0.5;exitDx=0;exitDy=0;" parent="1" source="QEAgkKTbfmdCsEAafoWu-19" target="QEAgkKTbfmdCsEAafoWu-22" edge="1">
          <mxGeometry relative="1" as="geometry">
            <mxPoint x="680" y="915" as="sourcePoint" />
          </mxGeometry>
        </mxCell>
        <mxCell id="QEAgkKTbfmdCsEAafoWu-21" value="" style="rounded=0;orthogonalLoop=1;jettySize=auto;html=1;endArrow=halfCircle;endFill=0;endSize=6;strokeWidth=1;sketch=0;exitX=1;exitY=0.5;exitDx=0;exitDy=0;" parent="1" source="QEAgkKTbfmdCsEAafoWu-15" target="QEAgkKTbfmdCsEAafoWu-22" edge="1">
          <mxGeometry relative="1" as="geometry">
            <mxPoint x="595" y="675" as="sourcePoint" />
            <mxPoint x="605" y="730" as="targetPoint" />
          </mxGeometry>
        </mxCell>
        <mxCell id="QEAgkKTbfmdCsEAafoWu-22" value="" style="ellipse;whiteSpace=wrap;html=1;align=center;aspect=fixed;resizable=0;points=[];outlineConnect=0;sketch=0;" parent="1" vertex="1">
          <mxGeometry x="670" y="675" width="10" height="10" as="geometry" />
        </mxCell>
        <mxCell id="D_LdFUzbr9QLPJNRoa1a-4" value="Frontend" style="text;html=1;align=center;verticalAlign=middle;whiteSpace=wrap;rounded=0;" vertex="1" parent="1">
          <mxGeometry x="110" y="80" width="60" height="30" as="geometry" />
        </mxCell>
        <mxCell id="D_LdFUzbr9QLPJNRoa1a-5" value="Frontend (Website)&lt;br&gt;(React)" style="rounded=1;whiteSpace=wrap;html=1;fillColor=#dae8fc;strokeColor=#6c8ebf;" vertex="1" parent="1">
          <mxGeometry x="790" y="400" width="120" height="60" as="geometry" />
        </mxCell>
        <mxCell id="D_LdFUzbr9QLPJNRoa1a-6" value="Datenbank" style="rounded=0;whiteSpace=wrap;html=1;verticalAlign=top;" vertex="1" parent="1">
          <mxGeometry x="980" y="370" width="140" height="196" as="geometry" />
        </mxCell>
        <mxCell id="D_LdFUzbr9QLPJNRoa1a-7" value="DB" style="shape=cylinder3;whiteSpace=wrap;html=1;boundedLbl=1;backgroundOutline=1;size=15;fillColor=#fff2cc;strokeColor=#d6b656;" vertex="1" parent="1">
          <mxGeometry x="1020" y="480" width="60" height="80" as="geometry" />
        </mxCell>
        <mxCell id="D_LdFUzbr9QLPJNRoa1a-8" style="edgeStyle=orthogonalEdgeStyle;rounded=0;orthogonalLoop=1;jettySize=auto;html=1;exitX=0.5;exitY=1;exitDx=0;exitDy=0;entryX=0.5;entryY=0;entryDx=0;entryDy=0;entryPerimeter=0;" edge="1" parent="1" source="D_LdFUzbr9QLPJNRoa1a-9" target="D_LdFUzbr9QLPJNRoa1a-7">
          <mxGeometry relative="1" as="geometry" />
        </mxCell>
        <mxCell id="D_LdFUzbr9QLPJNRoa1a-9" value="Datenbank-Service&lt;br&gt;(C#)" style="rounded=1;whiteSpace=wrap;html=1;fillColor=#fff2cc;strokeColor=#d6b656;" vertex="1" parent="1">
          <mxGeometry x="990" y="400" width="120" height="60" as="geometry" />
        </mxCell>
        <mxCell id="D_LdFUzbr9QLPJNRoa1a-10" value="" style="rounded=0;orthogonalLoop=1;jettySize=auto;html=1;endArrow=none;endFill=0;sketch=0;sourcePerimeterSpacing=0;targetPerimeterSpacing=0;exitX=0;exitY=0.5;exitDx=0;exitDy=0;" edge="1" parent="1" source="D_LdFUzbr9QLPJNRoa1a-9" target="D_LdFUzbr9QLPJNRoa1a-12">
          <mxGeometry relative="1" as="geometry">
            <mxPoint x="950" y="665" as="sourcePoint" />
          </mxGeometry>
        </mxCell>
        <mxCell id="D_LdFUzbr9QLPJNRoa1a-11" value="" style="rounded=0;orthogonalLoop=1;jettySize=auto;html=1;endArrow=halfCircle;endFill=0;endSize=6;strokeWidth=1;sketch=0;exitX=1;exitY=0.5;exitDx=0;exitDy=0;" edge="1" parent="1" source="D_LdFUzbr9QLPJNRoa1a-5" target="D_LdFUzbr9QLPJNRoa1a-12">
          <mxGeometry relative="1" as="geometry">
            <mxPoint x="895" y="430" as="sourcePoint" />
            <mxPoint x="875" y="480" as="targetPoint" />
          </mxGeometry>
        </mxCell>
        <mxCell id="D_LdFUzbr9QLPJNRoa1a-12" value="" style="ellipse;whiteSpace=wrap;html=1;align=center;aspect=fixed;resizable=0;points=[];outlineConnect=0;sketch=0;" vertex="1" parent="1">
          <mxGeometry x="950" y="425" width="10" height="10" as="geometry" />
        </mxCell>
        <mxCell id="D_LdFUzbr9QLPJNRoa1a-13" value="" style="endArrow=none;dashed=1;html=1;rounded=0;" edge="1" parent="1">
          <mxGeometry width="50" height="50" relative="1" as="geometry">
            <mxPoint x="240" y="200" as="sourcePoint" />
            <mxPoint x="240" y="80" as="targetPoint" />
          </mxGeometry>
        </mxCell>
        <mxCell id="D_LdFUzbr9QLPJNRoa1a-14" value="Backend" style="text;html=1;align=center;verticalAlign=middle;whiteSpace=wrap;rounded=0;" vertex="1" parent="1">
          <mxGeometry x="310" y="80" width="60" height="30" as="geometry" />
        </mxCell>
        <mxCell id="D_LdFUzbr9QLPJNRoa1a-16" value="Database" style="text;html=1;align=center;verticalAlign=middle;whiteSpace=wrap;rounded=0;" vertex="1" parent="1">
          <mxGeometry x="510" y="80" width="60" height="30" as="geometry" />
        </mxCell>
      </root>
    </mxGraphModel>
  </diagram>
  <diagram id="jnEPLgwiJ70hUi75RZwy" name="database">
    <mxGraphModel dx="848" dy="624" grid="1" gridSize="10" guides="1" tooltips="1" connect="1" arrows="1" fold="1" page="1" pageScale="1" pageWidth="1169" pageHeight="827" math="0" shadow="0">
      <root>
        <mxCell id="0" />
        <mxCell id="1" parent="0" />
        <mxCell id="Fp1vMfEsd_f9WrejEp_h-1" value="&lt;b&gt;&lt;font style=&quot;font-size: 14px;&quot;&gt;CloudAppDB: database&lt;/font&gt;&lt;/b&gt;" style="rounded=0;whiteSpace=wrap;html=1;verticalAlign=top;fillColor=#f5f5f5;strokeColor=#666666;fontColor=#333333;" vertex="1" parent="1">
          <mxGeometry x="200" y="80" width="670" height="440" as="geometry" />
        </mxCell>
        <mxCell id="Fp1vMfEsd_f9WrejEp_h-9" value="defect: collection" style="rounded=1;whiteSpace=wrap;html=1;verticalAlign=top;arcSize=13;fontStyle=1;fillColor=#dae8fc;strokeColor=#6c8ebf;" vertex="1" parent="1">
          <mxGeometry x="220" y="110" width="180" height="180" as="geometry" />
        </mxCell>
        <mxCell id="Fp1vMfEsd_f9WrejEp_h-10" value="&lt;div style=&quot;text-align: center;&quot;&gt;&lt;/div&gt;_id: &lt;span style=&quot;white-space: pre;&quot;&gt;&#x9;&lt;/span&gt;&lt;span style=&quot;white-space: pre;&quot;&gt;&#x9;&lt;span style=&quot;white-space: pre;&quot;&gt;&#x9;&lt;/span&gt; &lt;/span&gt;ObjetId&lt;br&gt;id:&lt;span style=&quot;white-space: pre;&quot;&gt;&#x9;&lt;/span&gt;&lt;span style=&quot;white-space: pre;&quot;&gt;&#x9;&lt;span style=&quot;white-space: pre;&quot;&gt;&#x9;&lt;/span&gt; &lt;/span&gt;id&lt;br&gt;title:&amp;nbsp;&lt;span style=&quot;white-space: pre;&quot;&gt;&#x9;&lt;span style=&quot;white-space: pre;&quot;&gt;&#x9;&lt;/span&gt;&lt;/span&gt;&amp;nbsp;text&lt;br&gt;description:&lt;span style=&quot;white-space: pre;&quot;&gt;&lt;span style=&quot;white-space: pre;&quot;&gt;&#x9;&lt;/span&gt; &lt;/span&gt;text&lt;br&gt;date: &lt;span style=&quot;white-space: pre;&quot;&gt;&#x9;&lt;/span&gt;&lt;span style=&quot;white-space: pre;&quot;&gt;&#x9;&lt;/span&gt;&amp;nbsp;date&lt;br&gt;status:&amp;nbsp;&amp;nbsp;&lt;span style=&quot;white-space: pre;&quot;&gt;&#x9;&lt;/span&gt;&lt;span style=&quot;white-space: pre;&quot;&gt;&#x9;&lt;/span&gt;&amp;nbsp;text?&lt;br&gt;object:&lt;span style=&quot;white-space: pre;&quot;&gt;&#x9;&lt;/span&gt;&lt;span style=&quot;white-space: pre;&quot;&gt;&#x9;&lt;/span&gt;&amp;nbsp;text&lt;br&gt;location:&lt;span style=&quot;white-space: pre;&quot;&gt;&#x9;&lt;/span&gt;&lt;span style=&quot;white-space: pre;&quot;&gt;&#x9;&lt;/span&gt;&amp;nbsp;text" style="rounded=1;whiteSpace=wrap;html=1;verticalAlign=top;align=left;spacingLeft=4;spacing=0;spacingTop=0;arcSize=10;" vertex="1" parent="1">
          <mxGeometry x="230" y="152.5" width="160" height="127.5" as="geometry" />
        </mxCell>
        <mxCell id="Fp1vMfEsd_f9WrejEp_h-14" value="object: ..." style="text;html=1;strokeColor=none;fillColor=none;align=center;verticalAlign=middle;whiteSpace=wrap;rounded=0;spacing=0;" vertex="1" parent="1">
          <mxGeometry x="230" y="132.5" width="90" height="20" as="geometry" />
        </mxCell>
        <mxCell id="Fp1vMfEsd_f9WrejEp_h-19" value="place: collection" style="rounded=1;whiteSpace=wrap;html=1;verticalAlign=top;arcSize=13;fontStyle=1;fillColor=#dae8fc;strokeColor=#6c8ebf;" vertex="1" parent="1">
          <mxGeometry x="680" y="110" width="180" height="150" as="geometry" />
        </mxCell>
        <mxCell id="Fp1vMfEsd_f9WrejEp_h-20" value="object: ..." style="text;html=1;strokeColor=none;fillColor=none;align=center;verticalAlign=middle;whiteSpace=wrap;rounded=0;spacing=0;" vertex="1" parent="1">
          <mxGeometry x="680" y="132.5" width="90" height="20" as="geometry" />
        </mxCell>
        <mxCell id="Fp1vMfEsd_f9WrejEp_h-21" value="&lt;div style=&quot;text-align: center;&quot;&gt;&lt;/div&gt;_id: &lt;span style=&quot;white-space: pre;&quot;&gt;&#x9;&lt;/span&gt;&lt;span style=&quot;white-space: pre;&quot;&gt;&#x9;&lt;span style=&quot;white-space: pre;&quot;&gt;&#x9;&lt;/span&gt; &lt;/span&gt;ObjetId&lt;br&gt;id:&lt;span style=&quot;white-space: pre;&quot;&gt;&#x9;&lt;/span&gt;&lt;span style=&quot;white-space: pre;&quot;&gt;&#x9;&lt;span style=&quot;white-space: pre;&quot;&gt;&#x9;&lt;/span&gt; &lt;/span&gt;id&lt;br&gt;name:&amp;nbsp;&lt;span style=&quot;white-space: pre;&quot;&gt;&#x9;&lt;span style=&quot;white-space: pre;&quot;&gt;&#x9;&lt;/span&gt; &lt;/span&gt;name" style="rounded=1;whiteSpace=wrap;html=1;verticalAlign=top;align=left;spacingLeft=4;spacing=0;spacingTop=0;arcSize=10;" vertex="1" parent="1">
          <mxGeometry x="690" y="152.5" width="160" height="97.5" as="geometry" />
        </mxCell>
        <mxCell id="Fp1vMfEsd_f9WrejEp_h-23" value="{&lt;br&gt;id: ...&lt;br&gt;title: &quot;First problem&quot;,&lt;br&gt;description: &quot;really detailed&quot;,&lt;br&gt;date: 10-10-2024,&lt;br&gt;status: &quot;active&quot;,&lt;br&gt;object: &quot;HTWG Bulding O&quot;,&lt;br&gt;location: &quot;Second floor&quot;&lt;br&gt;}" style="text;html=1;strokeColor=none;fillColor=none;align=left;verticalAlign=top;whiteSpace=wrap;rounded=0;" vertex="1" parent="1">
          <mxGeometry x="500" y="270" width="160" height="160" as="geometry" />
        </mxCell>
      </root>
    </mxGraphModel>
  </diagram>
</mxfile>
